<svg id="simple-example" width="960" height="500"><g transform="translate(40,20)"><g class="x axis" transform="translate(0,450)"><g class="tick" style="opacity: 1; " transform="translate(0,0)"><line y2="6" x2="0"></line><text y="9" x="0" dy=".71em" style="text-anchor: middle; ">10,000</text></g><g class="tick" style="opacity: 1; " transform="translate(100,0)"><line y2="6" x2="0"></line><text y="9" x="0" dy=".71em" style="text-anchor: middle; ">15,000</text></g><g class="tick" style="opacity: 1; " transform="translate(200,0)"><line y2="6" x2="0"></line><text y="9" x="0" dy=".71em" style="text-anchor: middle; ">20,000</text></g><g class="tick" style="opacity: 1; " transform="translate(300.00000000000006,0)"><line y2="6" x2="0"></line><text y="9" x="0" dy=".71em" style="text-anchor: middle; ">25,000</text></g><g class="tick" style="opacity: 1; " transform="translate(400,0)"><line y2="6" x2="0"></line><text y="9" x="0" dy=".71em" style="text-anchor: middle; ">30,000</text></g><g class="tick" style="opacity: 1; " transform="translate(500,0)"><line y2="6" x2="0"></line><text y="9" x="0" dy=".71em" style="text-anchor: middle; ">35,000</text></g><g class="tick" style="opacity: 1; " transform="translate(600.0000000000001,0)"><line y2="6" x2="0"></line><text y="9" x="0" dy=".71em" style="text-anchor: middle; ">40,000</text></g><g class="tick" style="opacity: 1; " transform="translate(700,0)"><line y2="6" x2="0"></line><text y="9" x="0" dy=".71em" style="text-anchor: middle; ">45,000</text></g><g class="tick" style="opacity: 1; " transform="translate(800,0)"><line y2="6" x2="0"></line><text y="9" x="0" dy=".71em" style="text-anchor: middle; ">50,000</text></g><g class="tick" style="opacity: 1; " transform="translate(900,0)"><line y2="6" x2="0"></line><text y="9" x="0" dy=".71em" style="text-anchor: middle; ">55,000</text></g><path class="domain" d="M0,6V0H900V6"></path><text class="label" x="900" y="-6" style="text-anchor: end; ">Duration</text></g><g class="y 	axis"><g class="tick" style="opacity: 1; " transform="translate(0,450)"><line x2="-6" y2="0"></line><text x="-9" y="0" dy=".32em" style="text-anchor: end; ">3,500</text></g><g class="tick" style="opacity: 1; " transform="translate(0,385.7142857142857)"><line x2="-6" y2="0"></line><text x="-9" y="0" dy=".32em" style="text-anchor: end; ">4,000</text></g><g class="tick" style="opacity: 1; " transform="translate(0,321.42857142857144)"><line x2="-6" y2="0"></line><text x="-9" y="0" dy=".32em" style="text-anchor: end; ">4,500</text></g><g class="tick" style="opacity: 1; " transform="translate(0,257.1428571428571)"><line x2="-6" y2="0"></line><text x="-9" y="0" dy=".32em" style="text-anchor: end; ">5,000</text></g><g class="tick" style="opacity: 1; " transform="translate(0,192.85714285714283)"><line x2="-6" y2="0"></line><text x="-9" y="0" dy=".32em" style="text-anchor: end; ">5,500</text></g><g class="tick" style="opacity: 1; " transform="translate(0,128.57142857142856)"><line x2="-6" y2="0"></line><text x="-9" y="0" dy=".32em" style="text-anchor: end; ">6,000</text></g><g class="tick" style="opacity: 1; " transform="translate(0,64.28571428571428)"><line x2="-6" y2="0"></line><text x="-9" y="0" dy=".32em" style="text-anchor: end; ">6,500</text></g><g class="tick" style="opacity: 1; " transform="translate(0,0)"><line x2="-6" y2="0"></line><text x="-9" y="0" dy=".32em" style="text-anchor: end; ">7,000</text></g><path class="domain" d="M-6,0H0V450H-6"></path><text class="label" transform="rotate(-90)" y="6" dy=".71em" style="text-anchor: end; ">Change in state-of-charge</text></g><circle class="dot" r="3.5" cx="728.08" cy="206.22857142857143"></circle><circle class="dot" r="3.5" cx="851.5200000000001" cy="130.49999999999994"></circle><circle class="dot" r="3.5" cx="802.84" cy="192.3428571428571"></circle><circle class="dot" r="3.5" cx="659.86" cy="110.82857142857142"></circle><circle class="dot" r="3.5" cx="681.64" cy="252.6428571428571"></circle><circle class="dot" r="3.5" cx="893.9" cy="113.14285714285711"></circle><circle class="dot" r="3.5" cx="676.42" cy="202.24285714285713"></circle><circle class="dot" r="3.5" cx="732.14" cy="349.2"></circle><circle class="dot" r="3.5" cx="633.46" cy="243.5142857142857"></circle><circle class="dot" r="3.5" cx="528.74" cy="39.08571428571423"></circle><circle class="dot" r="3.5" cx="793.6600000000001" cy="174.59999999999997"></circle><circle class="dot" r="3.5" cx="473.66" cy="266.4"></circle><circle class="dot" r="3.5" cx="701.3800000000001" cy="228.0857142857143"></circle><circle class="dot" r="3.5" cx="489.44" cy="150.17142857142852"></circle><circle class="dot" r="3.5" cx="795.0000000000001" cy="128.18571428571425"></circle><circle class="dot" r="3.5" cx="590.58" cy="251.99999999999997"></circle><circle class="dot" r="3.5" cx="736.5" cy="129.3428571428571"></circle><circle class="dot" r="3.5" cx="607.58" cy="153"></circle><circle class="dot" r="3.5" cx="25.42" cy="446.4"></circle><circle class="dot" r="3.5" cx="583.9" cy="300.6"></circle><circle class="dot" r="3.5" cx="809.98" cy="200.57142857142853"></circle><circle class="dot" r="3.5" cx="349.46000000000004" cy="411.9428571428571"></circle><circle class="dot" r="3.5" cx="611.0400000000001" cy="291.0857142857143"></circle></g></svg>